<?xml version="1.0" encoding="utf-8"?>
<?xml-stylesheet type="text/xsl" href="rss1.xsl"?>
<rss version="2.0" xmlns:atom="http://www.w3.org/2005/Atom" xmlns:content="http://purl.org/rss/1.0/modules/content/" xmlns:dc="http://purl.org/dc/elements/1.1/" xmlns:media="http://search.yahoo.com/mrss/">
<channel>
 <title>Getty</title>
 <link>http://www.gettyimg.com/</link>
 <atom:link href="http://www.gettyimg.com/" rel="self" type="application/rss+xml" />

 
                <item>
                <title><![CDATA[【SD Live Performances】PACK - Mariah Carey - Música Sí (RTVE) 1998-2000 WEB-RIP]]></title>
                <link><![CDATA[https://sharemania.us/threads/mariah-carey-m%C3%BAsica-s%C3%AD-rtve-1998-2000-web-rip.240751/]]></link>
                <description><![CDATA[<article>
<blockquote class="messageText SelectQuoteContainer ugc baseHtml">
<b><span style="font-size: 18px">Mariah Carey - Música Sí</span></b><br>
My All - 12 - 09 - 1998<br>
Butterfly - 15 - 08 - 1998<br>
Thank God I Found You feat. Joe - 26 - 08 - 2000<br>
<b> **I didn't find Against All Odds <img src="styles/default/xenforo/smilies/unhappy-48.png" class="mceSmilie" alt=":(" title="Frown    :("> if someone finds it, please upload it**<br>
<img src="https://i.imgur.com/CNu2rgr.jpg" class="bbCodeImage LbImage" alt="[​IMG]" data-url="https://i.imgur.com/CNu2rgr.jpg" style=""> <br>
<img src="https://i.imgur.com/nm28dm0.jpg" class="bbCodeImage LbImage" alt="[​IMG]" data-url="https://i.imgur.com/nm28dm0.jpg" style=""> </b><br>
<div class="ToggleTriggerAnchor bbCodeSpoilerContainer">
<button type="button" class="button bbCodeSpoilerButton ToggleTrigger Tooltip JsOnly" data-target="> .SpoilerTarget"><span>Spoiler: <span class="SpoilerTitle">MediaInfo</span></span></button>
<div class="SpoilerTarget bbCodeSpoilerText">General<br>
Complete name : C:\Users\Admin\Videos\MC-Música sí\My All -Música sí - 12 09 1998.mp4<br>
Format : MPEG-4<br>
Format profile : Base Media<br>
Codec ID : isom (mp41/avc1)<br>
File size : 13.3 MiB<br>
Duration : 2 min 46 s<br>
Overall bit rate mode : Variable<br>
Overall bit rate : 669 kb/s<br>
Encoded date : UTC 2024-03-25 04:54:45<br>
Tagged date : UTC 2024-03-25 04:54:45<br>
Writing application : vlc 3.0.20 stream output<br>
Comment : QuickTime 6.0 or greater<br>
<br>
Video<br>
ID : 1<br>
Format : AVC<br>
Format/Info : Advanced Video Codec<br>
Format profile : Main@L3<br>
Format settings : CABAC / 3 Ref Frames<br>
Format settings, CABAC : Yes<br>
Format settings, Reference fra : 3 frames<br>
Codec ID : avc1<br>
Codec ID/Info : Advanced Video Coding<br>
Duration : 2 min 45 s<br>
Bit rate : 565 kb/s<br>
Width : 640 pixels<br>
Height : 480 pixels<br>
Display aspect ratio : 4:3<br>
Frame rate mode : Variable<br>
Frame rate : 25.000 FPS<br>
Minimum frame rate : 8.333 FPS<br>
Maximum frame rate : 1000 000.000 FPS<br>
Color space : YUV<br>
Chroma subsampling : 4:2:0<br>
Bit depth : 8 bits<br>
Scan type : Progressive<br>
Bits/(Pixel*Frame) : 0.074<br>
Stream size : 11.2 MiB (84%)<br>
Language : English<br>
Encoded date : UTC 2024-03-25 04:54:45<br>
Tagged date : UTC 2024-03-25 04:54:45<br>
Codec configuration box : avcC<br>
<br>
Audio<br>
ID : 2<br>
Format : AAC LC<br>
Format/Info : Advanced Audio Codec Low Complexity<br>
Codec ID : mp4a-40-2<br>
Duration : 2 min 46 s<br>
Duration_FirstFrame : -23 ms<br>
Bit rate mode : Variable<br>
Bit rate : 100 kb/s<br>
Maximum bit rate : 123 kb/s<br>
Channel(s) : 2 channels<br>
Channel layout : L R<br>
Sampling rate : 44.1 kHz<br>
Frame rate : 43.066 FPS (1024 SPF)<br>
Compression mode : Lossy<br>
Stream size : 1.99 MiB (15%)<br>
Language : English<br>
Encoded date : UTC 2024-03-25 04:54:45<br>
Tagged date : UTC 2024-03-25 04:54:45<br>
mdhd_Duration : 166626</div>
</div><br>
<img src="https://i.imgur.com/QIyfhKw.jpg" class="bbCodeImage LbImage" alt="[​IMG]" data-url="https://i.imgur.com/QIyfhKw.jpg" style=""> <br>
<img src="https://i.imgur.com/XJGbSgu.jpg" class="bbCodeImage LbImage" alt="[​IMG]" data-url="https://i.imgur.com/XJGbSgu.jpg" style=""> <br>
<div class="ToggleTriggerAnchor bbCodeSpoilerContainer">
<button type="button" class="button bbCodeSpoilerButton ToggleTrigger Tooltip JsOnly" data-target="> .SpoilerTarget"><span>Spoiler: <span class="SpoilerTitle">MediaInfo</span></span></button>
<div class="SpoilerTarget bbCodeSpoilerText">General<br>
Complete name : C:\Users\Admin\Videos\MC-Música sí\Butterfly -Música sí - 15 08 1998.mp4<br>
Format : MPEG-4<br>
Format profile : Base Media<br>
Codec ID : isom (mp41/avc1)<br>
File size : 89.4 MiB<br>
Duration : 4 min 13 s<br>
Overall bit rate mode : Variable<br>
Overall bit rate : 2 966 kb/s<br>
Encoded date : UTC 2024-03-25 02:49:15<br>
Tagged date : UTC 2024-03-25 02:49:15<br>
Writing application : vlc 3.0.20 stream output<br>
Comment : QuickTime 6.0 or greater<br>
<br>
Video<br>
ID : 1<br>
Format : AVC<br>
Format/Info : Advanced Video Codec<br>
Format profile : High@L4.1<br>
Format settings : CABAC / 3 Ref Frames<br>
Format settings, CABAC : Yes<br>
Format settings, Reference fra : 3 frames<br>
Format settings, GOP : M=1, N=125<br>
Codec ID : avc1<br>
Codec ID/Info : Advanced Video Coding<br>
Duration : 4 min 13 s<br>
Bit rate mode : Constant<br>
Bit rate : 2 750 kb/s<br>
Width : 1 280 pixels<br>
Height : 720 pixels<br>
Display aspect ratio : 16:9<br>
Frame rate mode : Constant<br>
Frame rate : 25.000 FPS<br>
Color space : YUV<br>
Chroma subsampling : 4:2:0<br>
Bit depth : 8 bits<br>
Scan type : Progressive<br>
Bits/(Pixel*Frame) : 0.119<br>
Stream size : 83.4 MiB (93%)<br>
Language : English<br>
Encoded date : UTC 2024-03-25 02:49:15<br>
Tagged date : UTC 2024-03-25 02:49:15<br>
Codec configuration box : avcC<br>
<br>
Audio<br>
ID : 2<br>
Format : AAC LC<br>
Format/Info : Advanced Audio Codec Low Complexity<br>
Codec ID : mp4a-40-2<br>
Duration : 4 min 12 s<br>
Bit rate mode : Variable<br>
Bit rate : 192 kb/s<br>
Maximum bit rate : 442 kb/s<br>
Channel(s) : 2 channels<br>
Channel layout : L R<br>
Sampling rate : 48.0 kHz<br>
Frame rate : 46.875 FPS (1024 SPF)<br>
Compression mode : Lossy<br>
Stream size : 5.77 MiB (6%)<br>
Language : English<br>
Encoded date : UTC 2024-03-25 02:49:15<br>
Tagged date : UTC 2024-03-25 02:49:15</div>
</div><br>
<img src="https://i.imgur.com/FZPDGX9.jpg" class="bbCodeImage LbImage" alt="[​IMG]" data-url="https://i.imgur.com/FZPDGX9.jpg" style=""> <br>
<img src="https://i.imgur.com/xicTAjd.jpg" class="bbCodeImage LbImage" alt="[​IMG]" data-url="https://i.imgur.com/xicTAjd.jpg" style=""> <br>
<div class="ToggleTriggerAnchor bbCodeSpoilerContainer">
<button type="button" class="button bbCodeSpoilerButton ToggleTrigger Tooltip JsOnly" data-target="> .SpoilerTarget"><span>Spoiler: <span class="SpoilerTitle">MediaInfo</span></span></button>
<div class="SpoilerTarget bbCodeSpoilerText">General<br>
Complete name : C:\Users\Admin\Videos\MC-Música sí\Thank God I Found You -Música sí - Especial Verano 26 08 2000.mp4<br>
Format : MPEG-4<br>
Format profile : Base Media<br>
Codec ID : isom (mp41/avc1)<br>
File size : 54.3 MiB<br>
Duration : 4 min 47 s<br>
Overall bit rate mode : Variable<br>
Overall bit rate : 1 586 kb/s<br>
Encoded date : UTC 2024-03-25 03:48:59<br>
Tagged date : UTC 2024-03-25 03:48:59<br>
Writing application : vlc 3.0.20 stream output<br>
Comment : QuickTime 6.0 or greater<br>
<br>
Video<br>
ID : 1<br>
Format : AVC<br>
Format/Info : Advanced Video Codec<br>
Format profile : High@L4.1<br>
Format settings : CABAC / 4 Ref Frames<br>
Format settings, CABAC : Yes<br>
Format settings, Reference fra : 4 frames<br>
Codec ID : avc1<br>
Codec ID/Info : Advanced Video Coding<br>
Duration : 4 min 42 s<br>
Bit rate : 1 509 kb/s<br>
Width : 768 pixels<br>
Height : 576 pixels<br>
Display aspect ratio : 4:3<br>
Frame rate mode : Variable<br>
Frame rate : 25.000 FPS<br>
Minimum frame rate : 8.333 FPS<br>
Maximum frame rate : 1000 000.000 FPS<br>
Color space : YUV<br>
Chroma subsampling : 4:2:0<br>
Bit depth : 8 bits<br>
Scan type : Progressive<br>
Bits/(Pixel*Frame) : 0.136<br>
Stream size : 50.8 MiB (93%)<br>
Language : English<br>
Encoded date : UTC 2024-03-25 03:48:59<br>
Tagged date : UTC 2024-03-25 03:48:59<br>
Codec configuration box : avcC<br>
<br>
Audio<br>
ID : 2<br>
Format : AAC LC<br>
Format/Info : Advanced Audio Codec Low Complexity<br>
Codec ID : mp4a-40-2<br>
Duration : 4 min 47 s<br>
Duration_FirstFrame : -23 ms<br>
Bit rate mode : Variable<br>
Bit rate : 96.0 kb/s<br>
Maximum bit rate : 284 kb/s<br>
Channel(s) : 2 channels<br>
Channel layout : L R<br>
Sampling rate : 44.1 kHz<br>
Frame rate : 43.066 FPS (1024 SPF)<br>
Compression mode : Lossy<br>
Stream size : 3.31 MiB (6%)<br>
Language : English<br>
Encoded date : UTC 2024-03-25 03:48:59<br>
Tagged date : UTC 2024-03-25 03:48:59<br>
mdhd_Duration : 287114</div>
</div><br>
<div class="bbCodeBlock bbCodeVfcHH HiddenContent">
<div class="attribution type">Hidden Content:</div>
<blockquote>You must reply before you can see the hidden data contained here.</blockquote>
</div>
<div class="messageTextEndMarker">&nbsp;</div>
</blockquote>
</article>]]></description>
                <author><![CDATA[BERNXMRG]]></author>
                </item>

                </channel></rss>